M48
;Layer_Color=9474304
;FILE_FORMAT=2:5
INCH,LZ
;TYPE=PLATED
T1F00S00C0.02362
T2F00S00C0.02953
T3F00S00C0.03150
T4F00S00C0.03543
T5F00S00C0.04331
T6F00S00C0.04528
%
T01
X0097Y0123
Y0128
X02585Y01285
Y01235
T02
X02025Y0119579
Y0129421
T03
X02425Y0122063
Y0129937
T04
X01735Y012
Y0139685
T05
X02225Y01165
Y01265
Y01365
T06
X0107283Y01085
X0107283Y012
Y01315
X0107283Y0143
X0142717
X0142717Y01315
Y012
X0142717Y01085
M30
