G04*
G04 #@! TF.GenerationSoftware,Altium Limited,Altium Designer,21.6.1 (37)*
G04*
G04 Layer_Physical_Order=1*
G04 Layer_Color=255*
%FSLAX25Y25*%
%MOIN*%
G70*
G04*
G04 #@! TF.SameCoordinates,932B326A-3B8A-432E-9049-F9347913D85E*
G04*
G04*
G04 #@! TF.FilePolarity,Positive*
G04*
G01*
G75*
%ADD27C,0.02000*%
%ADD28C,0.06496*%
%ADD29R,0.06496X0.06496*%
%ADD30R,0.03937X0.03937*%
%ADD31C,0.03937*%
%ADD32C,0.05118*%
%ADD33R,0.05118X0.05118*%
%ADD34C,0.06693*%
%ADD35R,0.06693X0.06693*%
%ADD36C,0.04921*%
%ADD37R,0.04921X0.04921*%
%ADD38R,0.05512X0.05512*%
%ADD39C,0.05512*%
%ADD40C,0.00100*%
G54D27*
X97026Y128000D02*
X100526Y131500D01*
X107283D01*
X97000Y128000D02*
X97026D01*
X97000Y123000D02*
X100000Y120000D01*
X107283D01*
X202500Y119579D02*
X205579Y116500D01*
X222500D01*
X142717Y120000D02*
Y131500D01*
X173500Y120000D02*
X202500D01*
X142717D02*
X173500D01*
X242500Y129937D02*
X257063D01*
X258500Y128500D01*
X235937Y136500D02*
X242500Y129937D01*
X202500Y119579D02*
Y120000D01*
X222500Y136500D02*
X235937D01*
X107283Y108500D02*
X107283D01*
Y120000D01*
X107283Y131500D02*
X107283D01*
X107283D02*
Y143000D01*
G54D28*
X142717Y120000D02*
D03*
X107283Y108500D02*
D03*
X142717Y131500D02*
D03*
X107283Y143000D02*
D03*
G54D29*
X107283Y120000D02*
D03*
X142717Y108500D02*
D03*
X107283Y131500D02*
D03*
X142717Y143000D02*
D03*
G54D30*
X97000Y123000D02*
D03*
X258500Y128500D02*
D03*
G54D31*
X97000Y128000D02*
D03*
X258500Y123500D02*
D03*
G54D32*
X242500Y122063D02*
D03*
G54D33*
Y129937D02*
D03*
G54D34*
X222500Y136500D02*
D03*
Y126500D02*
D03*
G54D35*
Y116500D02*
D03*
G54D36*
X202500Y119579D02*
D03*
G54D37*
Y129421D02*
D03*
G54D38*
X173500Y120000D02*
D03*
G54D39*
Y139685D02*
D03*
G54D40*
X91000Y152500D02*
X270000D01*
Y101000D02*
Y152500D01*
X91000Y101000D02*
X270000D01*
X91000D02*
Y152500D01*
M02*
