G04*
G04 #@! TF.GenerationSoftware,Altium Limited,Altium Designer,21.6.1 (37)*
G04*
G04 Layer_Color=8388736*
%FSLAX25Y25*%
%MOIN*%
G70*
G04*
G04 #@! TF.SameCoordinates,932B326A-3B8A-432E-9049-F9347913D85E*
G04*
G04*
G04 #@! TF.FilePolarity,Negative*
G04*
G01*
G75*
%ADD15C,0.07296*%
%ADD16R,0.07296X0.07296*%
%ADD17R,0.04737X0.04737*%
%ADD18C,0.04737*%
%ADD19C,0.05918*%
%ADD20R,0.05918X0.05918*%
%ADD21C,0.07493*%
%ADD22R,0.07493X0.07493*%
%ADD23C,0.05721*%
%ADD24R,0.05721X0.05721*%
%ADD25R,0.06312X0.06312*%
%ADD26C,0.06312*%
G54D15*
X142717Y120000D02*
D03*
X107283Y108500D02*
D03*
X142717Y131500D02*
D03*
X107283Y143000D02*
D03*
G54D16*
X107283Y120000D02*
D03*
X142717Y108500D02*
D03*
X107283Y131500D02*
D03*
X142717Y143000D02*
D03*
G54D17*
X97000Y123000D02*
D03*
X258500Y128500D02*
D03*
G54D18*
X97000Y128000D02*
D03*
X258500Y123500D02*
D03*
G54D19*
X242500Y122063D02*
D03*
G54D20*
Y129937D02*
D03*
G54D21*
X222500Y136500D02*
D03*
Y126500D02*
D03*
G54D22*
Y116500D02*
D03*
G54D23*
X202500Y119579D02*
D03*
G54D24*
Y129421D02*
D03*
G54D25*
X173500Y120000D02*
D03*
G54D26*
Y139685D02*
D03*
M02*
